inDegrees=no
num_controls=7
num_derivatives=13
num_iterations=134
num_multipliers=7
num_parameters=0
num_slacks=7
num_states=26
objective=0.516807
objective_accelerations=0.039278
objective_balance=0.002224
objective_effort=0.043799
objective_height=0.419891
objective_ligament=0.011615
solver_duration=1773.153885
status=Solve_Succeeded
success=true
DataType=double
version=3
OpenSimVersion=4.5
endheader
time	/jointset/ground_pelvis/pelvis_tilt/value	/jointset/ground_pelvis/pelvis_tx/value	/jointset/ground_pelvis/pelvis_ty/value	/jointset/hip_l/hip_flexion_l/value	/jointset/hip_l/hip_adduction_l/value	/jointset/hip_l/hip_rotation_l/value	/jointset/back/lumbar_extension/value	/jointset/patellofemoral_l/patellar_flexion_l/value	/jointset/knee_l/knee_flexion_l/value	/jointset/knee_l/knee_adduction_l/value	/jointset/knee_l/knee_rotation_l/value	/jointset/ankle_l/ankle_angle_l/value	/jointset/subtalar_l/subtalar_angle_l/value	/jointset/ground_pelvis/pelvis_tilt/speed	/jointset/ground_pelvis/pelvis_tx/speed	/jointset/ground_pelvis/pelvis_ty/speed	/jointset/hip_l/hip_flexion_l/speed	/jointset/hip_l/hip_adduction_l/speed	/jointset/hip_l/hip_rotation_l/speed	/jointset/back/lumbar_extension/speed	/jointset/patellofemoral_l/patellar_flexion_l/speed	/jointset/knee_l/knee_flexion_l/speed	/jointset/knee_l/knee_adduction_l/speed	/jointset/knee_l/knee_rotation_l/speed	/jointset/ankle_l/ankle_angle_l/speed	/jointset/subtalar_l/subtalar_angle_l/speed	/forceset/tau_hip_flexion_l	/forceset/tau_hip_adduction_l	/forceset/tau_hip_rotation_l	/forceset/tau_knee_flexion_l	/forceset/tau_ankle_angle_l	/forceset/tau_subtalar_angle_l	/forceset/tau_lumbar_extension	lambda_cid13_p0	lambda_cid13_p1	lambda_cid13_p2	lambda_cid13_p3	lambda_cid13_p4	lambda_cid13_p5	lambda_cid14_p0	/jointset/ground_pelvis/pelvis_tilt/accel	/jointset/ground_pelvis/pelvis_tx/accel	/jointset/ground_pelvis/pelvis_ty/accel	/jointset/hip_l/hip_flexion_l/accel	/jointset/hip_l/hip_adduction_l/accel	/jointset/hip_l/hip_rotation_l/accel	/jointset/back/lumbar_extension/accel	/jointset/patellofemoral_l/patellar_flexion_l/accel	/jointset/knee_l/knee_flexion_l/accel	/jointset/knee_l/knee_adduction_l/accel	/jointset/knee_l/knee_rotation_l/accel	/jointset/ankle_l/ankle_angle_l/accel	/jointset/subtalar_l/subtalar_angle_l/accel	gamma_cid13_p0	gamma_cid13_p1	gamma_cid13_p2	gamma_cid13_p3	gamma_cid13_p4	gamma_cid13_p5	gamma_cid14_p0
1.5	-0.01691615472022921	-0.02666309973624389	0.8691049200500864	0.6320420900911119	-0.312368181884208	-0.1796839738873363	-0.7847559925140376	0.6328915091112748	0.6328915091112279	-0.1093274560004492	-0.1745302973649435	0.06562887704430621	0.004289923823547411	0.3941734048997427	0.2811684952263981	0.3409004486891301	-1.865089620604514	0.09444499961615439	-0.5315143543826257	0.8396481651632073	-1.622927767390629	-1.622927767390636	-0.1245329755623133	-2.13463806130524e-05	-0.2390113005638421	0.02556833230360697	-0.206357611599974	0.01938904637271888	-0.0037436656865456	-0.1881216061939086	0.09887755876821247	0.04235610050639564	0.2814841260926007	-11.01873914639023	-18.57368031543476	4.914376748333575	-8.544704614252014	-673.4075666936336	-77.25603484979928	-20.11900269487799	-0.006481432726102016	0.6298357615703605	-0.4947925626262444	-0.633330084475094	0.3146000016653842	-0.2161318543026889	1.749467985278535	-0.6214431681858772	-0.6214431681858952	-0.2901866561792847	0.03168412783640601	0.04348808463720442	0.3376781080060671	-2.721901366095876e-09	9.865167893108791e-07	1.545867081294378e-07	1.543137694199828e-07	7.841342577316957e-08	1.335929452731224e-07	9.529479966643728e-08
1.51	-0.0129751993060101	-0.02382020257432098	0.8724885331007373	0.6133615793433691	-0.3114084535800186	-0.1850110002267872	-0.7762732442321241	0.6166332317101493	0.6166332317101525	-0.1105872250327828	-0.1745306503055562	0.06324126424179692	0.004562106488747183	0.393964110502493	0.2873795306451301	0.335758013760762	-1.870777199912318	0.09749187416561084	-0.5338334016016285	0.8567865741039498	-1.628509981476711	-1.62850998147673	-0.1274186404862925	-4.635480747380111e-05	-0.2384624951691106	0.02887276422591221	-0.1988284395164283	0.01848882063809778	-0.003722627659942139	-0.1855933586665864	0.0984751566567237	0.041493952476427	0.2745013024241062	-10.95698362181635	-18.26042897961631	4.921966721000324	-8.332579000212837	-669.6933180050941	-77.21736825864394	-20.57926373413825	-0.03619867764580623	0.6120589128778589	-0.5335760129105166	-0.5011847286798603	0.298242709360933	-0.2310882551669027	1.678789781166415	-0.4939692689053941	-0.4939692689071955	-0.2872361833594366	-0.01914649140719177	0.06791796994302379	0.3273241333153892	-1.084093891035822e-08	1.016477448322251e-06	1.836750437092458e-07	1.595776684736382e-07	7.648093929981112e-08	1.342763476815846e-07	9.326456268628205e-08
1.52	-0.009037945882646744	-0.02091613076204006	0.8758188003911109	0.5946312502276	-0.3104185542247794	-0.1903594764583212	-0.767622559374264	0.600325660420147	0.6003256604201977	-0.1118757466689279	-0.1745311639631272	0.06086060773384545	0.004867433152964541	0.393433006728384	0.2934034252980008	0.3302312966336579	-1.875053294209996	0.1004792098260729	-0.5358043327993443	0.8732354803524622	-1.632786545166233	-1.632786545166264	-0.1302834963243594	-5.348977272950803e-05	-0.2376200416523036	0.03219713210712306	-0.1912992674328794	0.01758859490347947	-0.003701589633352836	-0.183065111139262	0.09807275454523592	0.04063180444646165	0.2675184787556132	-10.9010883790184	-17.94602387594594	4.929226870105125	-8.122961832680852	-666.0783011568619	-77.19569702079781	-21.01544756085396	-0.07084330809790408	0.5924076083981289	-0.5716490023734304	-0.3510330824498749	0.3026922238665128	-0.1465086500452925	1.611567446832555	-0.3603130888737748	-0.3603130888737836	-0.286024838996853	0.03525882015742372	0.102217709052255	0.3416652997871819	-7.937363143445897e-09	1.014006632382677e-06	1.572776002538545e-07	1.548290171694268e-07	8.469914278737238e-08	1.413740584733766e-07	9.52032285863588e-08
1.53	-0.005107614158631077	-0.01795281965854215	0.8790919314731462	0.5758652326536288	-0.3093991470767349	-0.1957256962997004	-0.7588110013333905	0.5839818594301973	0.5839818594301884	-0.1131930267943477	-0.1745315027933008	0.05848981248977	0.005206020216078717	0.3925781851852966	0.2992204891102179	0.3243355943237135	-1.877905703706293	0.1033905901638948	-0.5373890594903287	0.8889448125343095	-1.635747527921064	-1.635747527921054	-0.1331622562321917	-1.870589903542005e-05	-0.2364899515652574	0.0355223552488893	-0.1836316214991161	0.01656444959703601	-0.003733771409085521	-0.1806672770968193	0.09776738762870442	0.03972043800410126	0.2604057855993987	-10.82240639178465	-17.61190629240282	4.930686608047816	-7.879612505118352	-662.5372858638838	-77.16339751037394	-21.42479535083399	-0.1010814243618769	0.5706360647706756	-0.6074068875801778	-0.2156751435467666	0.2834770331662873	-0.1567798581543628	1.530918810701239	-0.2300930642366386	-0.230093064230546	-0.2870915967099888	-0.01309411376219556	0.1257871111078381	0.328107792998697	6.677739266589381e-09	9.770773743077233e-07	7.192651657356444e-08	1.394420311099818e-07	1.037024543584107e-07	1.552869719224567e-07	1.01358853796682e-07
1.54	-0.001187486619435036	-0.01493248185749458	0.8823043303236272	0.5570780249326299	-0.3083510029064271	-0.201106228443895	-0.7498462894293303	0.5676152281736093	0.5676152281735412	-0.1145387525248521	-0.1745316302416864	0.0561317946370805	0.005577890904936031	0.3913921697642978	0.3048087648079333	0.3180848503227591	-1.879291323615672	0.1062266142787669	-0.5386667933624868	0.9038662529897717	-1.637352598493851	-1.637352598493801	-0.1359726173413666	-1.121341484499751e-05	-0.2350645633751298	0.03885385725574968	-0.1759639755653508	0.01554030429059386	-0.003765953184815327	-0.1782694430543761	0.09746202071217336	0.03880907156174281	0.2532930924431854	-10.74967624710189	-17.27617490720024	4.93123617896719	-7.638652800993444	-659.0968129058712	-77.15123047566316	-21.80462517495975	-0.1370820836801284	0.5466499854978071	-0.6426573405754425	-0.05767516506595439	0.2876209792765674	-0.08511008628001082	1.453989101555588	-0.08913065246503982	-0.08913065246504505	-0.2723450792653455	0.02980054225670027	0.1612773296685283	0.3429210728060045	1.091384546715239e-08	9.591564515221325e-07	3.759619997811552e-08	1.316156960604985e-07	1.13176022593381e-07	1.612726707100013e-07	1.025930978952209e-07
1.55	0.002719089553156761	-0.01185748764171285	0.8854524999233409	0.538284425495385	-0.3072748204147736	-0.2064980214146246	-0.7407364442719947	0.5512393831359803	0.5512393831360063	-0.1159120868930582	-0.1745317859682973	0.05378949692249783	0.005983168783103097	0.3898657157136979	0.3101432747482256	0.3114950409930801	-1.879171354252987	0.1089968729534148	-0.5396353635052854	0.9179550731573901	-1.637582362332232	-1.637582362332236	-0.1386793118100481	-2.07749250967994e-05	-0.2333476932977536	0.04220199851571201	-0.1682145031904544	0.01445144612995567	-0.003843458994969003	-0.1759352115698001	0.09713882257940268	0.03784466082958017	0.2460964480900438	-10.69442755866737	-16.91227706805346	4.924932457900192	-7.322477239311041	-655.770969995257	-77.11107170509548	-22.1523223883207	-0.1690393498215603	0.5198575566188802	-0.6752248566447193	0.0854034963576393	0.2696277817064458	-0.09418691123002344	1.364172676399469	0.04518861691737999	0.04518861690927064	-0.2674167733796157	-0.01647065457123758	0.1840078236134068	0.3306415712093173	3.191542991584975e-09	9.631364367873287e-07	6.205068024128469e-08	1.325005458703183e-07	1.116696691585343e-07	1.581248395614296e-07	9.815705506061739e-08
